<?xml version="1.0" ?>
<!DOCTYPE svg  PUBLIC '-//W3C//DTD SVG 1.1//EN'  'http://www.w3.org/Graphics/SVG/1.1/DTD/svg11.dtd'>
<!-- Uploaded to: SVG Repo, www.svgrepo.com, Generator: SVG Repo Mixer Tools -->
<svg fill="#000000" width="800px" height="800px" viewBox="0 0 512 512" version="1.1" xml:space="preserve" xmlns="http://www.w3.org/2000/svg" xmlns:xlink="http://www.w3.org/1999/xlink">
<g id="_x37_30_x2C__management_x2C__process_x2C__production_x2C__task_x2C__work">
<g>
<path d="M255.984,159.793c53.145,0,96.209,43.066,96.209,96.207    c0,53.113-43.064,96.18-96.209,96.18c-53.113,0-96.178-43.066-96.178-96.18C159.806,202.859,202.872,159.793,255.984,159.793     M119.815,256c0-5.849,4.731-10.578,10.578-10.578c5.851,0,10.578,4.729,10.578,10.578s-4.727,10.578-10.578,10.578    C124.546,266.578,119.815,261.849,119.815,256z M138.062,324.084c-2.909-5.064-1.176-11.528,3.864-14.468    c5.064-2.909,11.529-1.174,14.466,3.891c2.909,5.063,1.176,11.528-3.889,14.439C147.436,330.855,140.971,329.15,138.062,324.084z     M187.9,373.924c-5.064-2.938-6.798-9.403-3.86-14.439c2.909-5.066,9.374-6.801,14.438-3.891c5.068,2.938,6.801,9.402,3.864,14.44    C199.432,375.099,192.968,376.834,187.9,373.924z M255.984,392.168c-5.847,0-10.578-4.729-10.578-10.577    s4.73-10.577,10.578-10.577c5.85,0,10.577,4.729,10.577,10.577S261.834,392.168,255.984,392.168z M324.068,373.924    c-5.064,2.91-11.528,1.175-14.438-3.89c-2.938-5.038-1.204-11.503,3.859-14.44c5.068-2.91,11.533-1.176,14.442,3.891    C330.87,364.521,329.137,370.985,324.068,373.924z M373.91,324.084c-2.912,5.066-9.377,6.771-14.441,3.862    c-5.064-2.911-6.798-9.376-3.889-14.439c2.938-5.064,9.402-6.8,14.467-3.891C375.114,312.556,376.848,319.02,373.91,324.084z     M392.156,256c0,5.849-4.73,10.578-10.581,10.578c-5.847,0-10.577-4.729-10.577-10.578s4.73-10.578,10.577-10.578    C387.426,245.422,392.156,250.151,392.156,256z M373.91,187.916c2.938,5.064,1.204,11.528-3.863,14.439    c-5.064,2.938-11.529,1.203-14.467-3.862c-2.909-5.063-1.176-11.528,3.889-14.468C364.533,181.116,370.998,182.85,373.91,187.916z     M324.068,138.076c5.068,2.91,6.802,9.375,3.864,14.439c-2.909,5.066-9.374,6.801-14.442,3.861    c-5.063-2.908-6.798-9.373-3.859-14.439C312.54,136.873,319.004,135.139,324.068,138.076z M255.984,119.832    c5.85,0,10.577,4.729,10.577,10.577s-4.728,10.577-10.577,10.577c-5.847,0-10.578-4.729-10.578-10.577    S250.137,119.832,255.984,119.832z M187.9,138.076c5.068-2.938,11.532-1.203,14.441,3.861c2.938,5.066,1.204,11.531-3.864,14.439    c-5.064,2.939-11.529,1.205-14.438-3.861C181.102,147.451,182.836,140.986,187.9,138.076z M138.062,187.916    c2.909-5.066,9.374-6.8,14.441-3.891c5.064,2.939,6.798,9.404,3.889,14.468c-2.938,5.065-9.402,6.8-14.466,3.862    C136.886,199.444,135.152,192.98,138.062,187.916z M231.723,197.095l36.21-19.729c1.653-0.897,3.752-0.28,4.646,1.37    c0.446,0.867,0.53,1.82,0.253,2.687l-3.948,14.356c17.52,5.651,31.484,17.602,39.991,32.572    c9.009,15.839,11.975,35.148,6.77,54.121c-0.501,1.819-2.376,2.883-4.226,2.407c-1.817-0.504-2.881-2.38-2.375-4.226    c4.699-17.127,2.014-34.588-6.132-48.916c-7.665-13.46-20.148-24.206-35.846-29.354l-2.77,10.073    c12.926,4.395,23.226,13.293,29.55,24.43c6.826,12.005,9.065,26.641,5.121,40.996c-0.502,1.818-2.38,2.91-4.197,2.406    c-1.818-0.504-2.91-2.377-2.408-4.197c3.443-12.564,1.484-25.324-4.478-35.818c-5.482-9.626-14.326-17.322-25.409-21.185    l-4.84,17.603c-0.505,1.818-2.379,2.91-4.197,2.406c-0.895-0.252-1.625-0.813-2.071-1.566l-21.127-35.596    c-0.955-1.65-0.421-3.75,1.2-4.702L231.723,197.095z M280.276,314.905l-36.238,19.729c-1.653,0.896-3.724,0.28-4.647-1.37    c-0.449-0.867-0.533-1.82-0.252-2.688l3.948-14.355c-17.52-5.68-31.456-17.602-39.991-32.572    c-9.009-15.839-11.978-35.148-6.773-54.121c0.505-1.848,2.408-2.91,4.226-2.407c1.821,0.504,2.885,2.38,2.379,4.198    c-4.699,17.154-2.015,34.615,6.127,48.943c7.668,13.46,20.151,24.178,35.85,29.354l2.769-10.103    c-12.929-4.392-23.226-13.291-29.55-24.43c-6.829-12.004-9.068-26.611-5.12-40.967c0.502-1.847,2.379-2.91,4.197-2.406    c1.818,0.475,2.91,2.377,2.408,4.197c-3.443,12.535-1.485,25.324,4.475,35.791c5.485,9.625,14.329,17.35,25.412,21.212l4.84-17.63    c0.501-1.82,2.379-2.883,4.225-2.379c0.896,0.225,1.594,0.813,2.043,1.538l21.127,35.624c0.979,1.623,0.421,3.749-1.203,4.702    L280.276,314.905z M222.237,476.568c-4.169-0.84-5.682,5.877-1.007,6.8l6.914,0.951c4.029,0.784,5.678-5.849,0.811-6.828    L222.237,476.568z M195.793,470.887c-5.064-1.007-5.682,5.877-1.846,6.633l6.742,1.764c4.815,0.979,5.738-5.849,1.653-6.661    L195.793,470.887z M170.215,462.017c-4.337-1.735-6.717,4.729-2.632,6.353c2.126,0.923,4.31,1.763,6.464,2.602    c1.793,0.7,3.78-0.335,4.394-1.874c0.783-1.96-0.225-3.862-1.93-4.563C174.385,463.724,172.286,462.911,170.215,462.017z     M145.926,450.095c-0.562-0.308-1.484-0.532-2.267-0.392c-3.218,0.645-3.945,4.701-1.147,6.381    c2.014,1.147,4.085,2.267,6.127,3.358c3.724,2.239,7.219-3.666,3.218-6.073C149.871,452.306,147.885,451.242,145.926,450.095z     M123.23,435.319c-3.583-2.687-7.725,2.827-4.113,5.514c1.79,1.398,3.804,2.771,5.71,4.085c4.029,2.436,7.472-2.965,3.889-5.652    L123.23,435.319z M102.496,417.914c-3.053-3.05-8.089,1.651-4.73,5.008l5.148,4.731c2.853,2.854,8.117-1.595,4.562-5.15    L102.496,417.914z M83.998,398.129c-3.387-3.387-7.921,0.896-5.261,4.423c1.481,1.79,2.966,3.553,4.534,5.288    c3.552,3.582,7.974-1.707,5.148-4.562L83.998,398.129z M68.047,376.273c-0.923-1.51-2.909-1.957-4.534-1.175    c-1.762,1.063-2.352,3.052-1.232,4.925c1.232,1.931,2.52,3.919,3.836,5.793c2.685,3.582,8.086,0.141,5.65-3.916L68.047,376.273z     M54.837,352.655c-1.481-3.748-8.058-1.706-6.184,2.995c0.979,2.07,2.042,4.17,3.106,6.24c2.604,4.338,8.174,0.252,6.1-3.19    C56.852,356.714,55.788,354.672,54.837,352.655z M44.597,327.583c-1.818-4.591-8.033-1.595-6.493,2.237l2.323,6.549    c1.762,4.395,8.058,1.623,6.464-2.406L44.597,327.583z M37.518,301.475c-0.87-4.338-7.64-3.136-6.745,1.426    c0.474,2.24,0.979,4.561,1.537,6.801c0.814,4.141,7.612,3.105,6.661-1.623L37.518,301.475z M33.654,274.665    c0-3.89-6.854-4.478-6.854,0.419c0.165,2.38,0.417,4.758,0.67,7.109c1.035,5.148,7.584,2.965,6.83-0.785L33.654,274.665z     M255.984,485.999c1.315,0,2.66-0.867,3.105-1.959c1.119-2.295-0.614-4.925-3.105-4.925l-6.77-0.113    c-4.759,0-4.506,6.885-0.196,6.885L255.984,485.999z M289.735,35.403c4.197,0.841,5.706-5.849,1.007-6.8l-6.914-0.923    c-0.252-0.056-0.782-0.028-1.035,0.028c-3.636,0.727-3.944,5.961,0.225,6.799L289.735,35.403z M316.207,41.085    c5.036,1.036,5.654-5.849,1.818-6.604l-6.746-1.792c-4.783-0.95-5.706,5.877-1.621,6.689L316.207,41.085z M341.756,49.955    c4.338,1.736,6.718-4.701,2.629-6.352c-2.127-0.895-4.31-1.736-6.465-2.574c-1.789-0.729-3.775,0.307-4.39,1.874    c-0.786,1.96,0.221,3.862,1.931,4.534C337.587,48.248,339.686,49.088,341.756,49.955z M366.046,61.877    c3.804,2.266,7.304-3.639,3.526-5.904c-1.986-1.204-4.169-2.323-6.239-3.443c-3.724-2.238-7.194,3.694-3.218,6.102    C362.129,59.694,364.115,60.758,366.046,61.877z M388.742,76.652c3.579,2.687,7.721-2.799,4.141-5.485    c-1.818-1.427-3.836-2.799-5.71-4.113c-4.058-2.407-7.472,2.993-3.917,5.651L388.742,76.652z M409.476,94.058    c3.05,3.077,8.09-1.623,4.731-4.979l-5.148-4.731c-2.857-2.853-8.118,1.567-4.563,5.15L409.476,94.058z M427.975,113.842    c3.387,3.387,7.917-0.866,5.261-4.393c-1.457-1.791-2.966-3.582-4.507-5.317c-3.579-3.554-8.001,1.735-5.148,4.562    L427.975,113.842z M443.953,135.727c2.211,3.693,8.142,0.223,5.818-3.666c-1.2-1.932-2.601-4.059-3.916-5.905    c-2.685-3.554-8.086-0.112-5.654,3.919L443.953,135.727z M457.135,159.345c1.481,3.722,8.058,1.678,6.184-2.995    c-0.979-2.099-2.042-4.197-3.105-6.24c-2.604-4.338-8.174-0.281-6.104,3.162C455.117,155.286,456.18,157.301,457.135,159.345z     M467.375,184.416c1.818,4.592,8.03,1.569,6.493-2.236l-2.323-6.577c-1.762-4.394-8.058-1.623-6.437,2.405L467.375,184.416z     M474.454,210.525c0.867,4.226,7.528,3.274,6.745-1.398c-0.478-2.268-0.951-4.588-1.54-6.828    c-0.812-4.141-7.609-3.133-6.658,1.623L474.454,210.525z M478.318,237.307c0,3.918,6.882,4.506,6.882-0.42    c-0.168-2.352-0.445-4.757-0.698-7.107c-1.035-5.148-7.584-2.967-6.83,0.783L478.318,237.307z M255.984,26.002    c-1.285,0-2.657,0.838-3.078,1.93c-1.147,2.295,0.59,4.953,3.078,4.953l6.801,0.084c4.731,0,4.479-6.855,0.169-6.855    L255.984,26.002z M48.766,256v14.887l57.282,8.592c1.681,10.803,4.506,21.239,8.338,31.174L69.11,346.725l14.859,25.743    l53.923-21.183c6.773,8.366,14.441,16.034,22.808,22.807l-21.183,53.925l25.746,14.887l36.071-45.306    c9.932,3.834,20.373,6.661,31.171,8.339l8.619,57.284h29.746l8.592-57.284c10.802-1.678,21.239-4.505,31.175-8.339l36.099,45.306    l25.746-14.887l-21.212-53.925c8.396-6.772,16.035-14.44,22.809-22.807l53.923,21.183l14.888-25.743l-45.308-36.072    c3.836-9.935,6.661-20.371,8.342-31.174l57.282-8.619V256v-14.887l-57.282-8.592c-1.681-10.803-4.506-21.24-8.342-31.174    l45.308-36.1l-14.888-25.744l-53.923,21.211c-6.773-8.395-14.413-16.035-22.809-22.807l21.212-53.925l-25.746-14.888    l-36.099,45.307c-9.936-3.834-20.373-6.661-31.175-8.339l-8.592-57.284h-29.746l-8.619,57.284    c-10.799,1.678-21.24,4.505-31.171,8.339l-36.071-45.307l-25.746,14.888l21.183,53.925c-8.367,6.771-16.035,14.44-22.808,22.807    L83.97,139.504L69.11,165.248l45.276,36.1c-3.832,9.934-6.657,20.371-8.338,31.174l-57.282,8.592V256z" style="fill-rule:evenodd;clip-rule:evenodd;"/>
</g>
</g>
<g id="Layer_1"/>
</svg>